<?xml version="1.0" encoding="utf-8"?>
<!-- Generator: Adobe Illustrator 19.0.0, SVG Export Plug-In . SVG Version: 6.00 Build 0)  -->
<svg version="1.1" baseProfile="tiny" id="Layer_1" xmlns="http://www.w3.org/2000/svg" xmlns:xlink="http://www.w3.org/1999/xlink"
	 x="0px" y="0px" viewBox="0 0 338.5 108.5" xml:space="preserve">
<rect fill="#D63031" width="338.5" height="108.5"/>
<g>
	<path fill="#FFFFFF" d="M76,86.7c-0.5,0-1-0.2-1.3-0.5c-0.3-0.3-0.5-0.8-0.5-1.3V55.6c0.1-3.2,0.9-6,2.3-8.5c1.5-2.5,3.5-4.5,6-5.9
		c2.5-1.5,5.4-2.2,8.5-2.2c3.2,0,6.1,0.7,8.7,2.2c2.6,1.5,4.6,3.5,6.1,6.1c1.5,2.6,2.2,5.5,2.2,8.7c0,3.2-0.7,6.1-2.2,8.6
		c-1.5,2.6-3.5,4.6-6.1,6.1c-2.6,1.5-5.5,2.2-8.7,2.2c-2.9,0-5.5-0.6-7.8-1.9c-2.3-1.3-4.1-2.9-5.4-5v18.9c0,0.5-0.2,1-0.5,1.3
		C77,86.5,76.6,86.7,76,86.7z M91.1,69.4c2.5,0,4.8-0.6,6.8-1.8c2-1.2,3.6-2.8,4.8-4.8c1.2-2,1.8-4.3,1.8-6.9c0-2.6-0.6-4.9-1.8-6.9
		c-1.2-2-2.8-3.7-4.8-4.8c-2-1.2-4.3-1.8-6.8-1.8c-2.5,0-4.8,0.6-6.8,1.8c-2,1.2-3.6,2.8-4.8,4.8c-1.2,2-1.7,4.4-1.7,6.9
		c0,2.5,0.6,4.8,1.7,6.9c1.2,2,2.7,3.7,4.8,4.8C86.4,68.9,88.6,69.4,91.1,69.4z"/>
	<path fill="#FFFFFF" d="M120.2,32.4c-0.8,0-1.4-0.3-2-0.8c-0.5-0.5-0.8-1.2-0.8-2c0-0.9,0.3-1.6,0.9-2.1c0.6-0.5,1.2-0.7,2-0.7
		c0.7,0,1.3,0.2,1.9,0.7c0.6,0.5,0.9,1.2,0.9,2.1c0,0.8-0.3,1.5-0.8,2C121.6,32.1,121,32.4,120.2,32.4z M120.2,72.5
		c-0.5,0-1-0.2-1.3-0.5c-0.3-0.3-0.5-0.8-0.5-1.3V41.1c0-0.6,0.2-1,0.5-1.3c0.3-0.3,0.8-0.5,1.3-0.5c0.6,0,1,0.2,1.3,0.5
		c0.3,0.3,0.5,0.8,0.5,1.3v29.5c0,0.5-0.2,1-0.5,1.3C121.2,72.3,120.8,72.5,120.2,72.5z"/>
	<path fill="#FFFFFF" d="M148.8,72.8c-3.2,0-6-0.7-8.5-2.2c-2.5-1.4-4.4-3.4-5.8-6c-1.4-2.5-2.1-5.5-2.1-8.7c0-3.3,0.7-6.2,2-8.8
		c1.3-2.5,3.2-4.5,5.5-6c2.3-1.5,5-2.2,8.1-2.2c3,0,5.6,0.7,7.9,2.1c2.3,1.4,4.1,3.3,5.4,5.8c1.3,2.4,1.9,5.3,1.9,8.5
		c0,0.5-0.2,0.9-0.5,1.2c-0.3,0.3-0.7,0.5-1.3,0.5h-26.7v-3.2h27.6l-2.7,2c0.1-2.6-0.4-4.9-1.3-7c-1-2-2.4-3.6-4.2-4.8
		c-1.8-1.2-3.9-1.7-6.3-1.7c-2.3,0-4.4,0.6-6.2,1.7c-1.8,1.2-3.2,2.7-4.2,4.8c-1,2-1.5,4.4-1.5,7c0,2.6,0.5,5,1.6,7
		c1.1,2,2.6,3.6,4.5,4.8c1.9,1.2,4.2,1.7,6.7,1.7c1.6,0,3.2-0.3,4.8-0.8c1.6-0.5,2.9-1.3,3.8-2.2c0.3-0.3,0.7-0.5,1.2-0.5
		c0.5,0,0.9,0.1,1.2,0.4c0.4,0.4,0.7,0.8,0.7,1.2c0,0.4-0.2,0.8-0.6,1.2c-1.3,1.2-3,2.1-5.1,2.9C152.7,72.4,150.7,72.8,148.8,72.8z"
		/>
	<path fill="#FFFFFF" d="M184.5,72.8c-3.2,0-6-0.7-8.5-2.2c-2.5-1.5-4.4-3.5-5.9-6.1c-1.4-2.5-2.2-5.4-2.2-8.6c0-3.2,0.7-6.1,2-8.7
		c1.3-2.5,3.2-4.6,5.5-6c2.3-1.5,5-2.2,8.1-2.2c2.6,0,4.9,0.5,7.1,1.5c2.1,1,4,2.5,5.6,4.5c0.3,0.4,0.4,0.8,0.4,1.3
		c-0.1,0.4-0.3,0.8-0.8,1.1c-0.4,0.3-0.8,0.4-1.2,0.3c-0.4-0.1-0.8-0.3-1.2-0.7c-2.6-3.1-5.9-4.6-9.9-4.6c-2.4,0-4.5,0.6-6.3,1.8
		c-1.8,1.2-3.2,2.8-4.2,4.8c-1,2-1.5,4.3-1.5,7c0,2.5,0.5,4.8,1.6,6.9c1.1,2,2.6,3.7,4.5,4.8c1.9,1.2,4.2,1.8,6.7,1.8
		c1.7,0,3.2-0.2,4.7-0.7c1.5-0.5,2.8-1.2,3.8-2.2c0.4-0.3,0.8-0.5,1.2-0.5c0.4,0,0.8,0.1,1.2,0.4c0.4,0.4,0.6,0.8,0.6,1.2
		c0,0.5-0.2,0.9-0.5,1.2C192.6,71.5,188.9,72.8,184.5,72.8z"/>
	<path fill="#FFFFFF" d="M220.5,72.8c-3.2,0-6-0.7-8.5-2.2c-2.5-1.4-4.4-3.4-5.8-6c-1.4-2.5-2.1-5.5-2.1-8.7c0-3.3,0.7-6.2,2-8.8
		c1.3-2.5,3.2-4.5,5.5-6c2.3-1.5,5-2.2,8.1-2.2c3,0,5.6,0.7,7.9,2.1c2.3,1.4,4.1,3.3,5.4,5.8c1.3,2.4,1.9,5.3,1.9,8.5
		c0,0.5-0.2,0.9-0.5,1.2c-0.3,0.3-0.7,0.5-1.3,0.5h-26.7v-3.2H234l-2.7,2c0.1-2.6-0.4-4.9-1.3-7c-1-2-2.4-3.6-4.2-4.8
		c-1.8-1.2-3.9-1.7-6.3-1.7c-2.3,0-4.4,0.6-6.2,1.7c-1.8,1.2-3.2,2.7-4.2,4.8c-1,2-1.5,4.4-1.5,7c0,2.6,0.5,5,1.6,7
		c1.1,2,2.6,3.6,4.5,4.8c1.9,1.2,4.2,1.7,6.7,1.7c1.6,0,3.2-0.3,4.8-0.8c1.6-0.5,2.9-1.3,3.8-2.2c0.3-0.3,0.7-0.5,1.2-0.5
		c0.5,0,0.9,0.1,1.2,0.4c0.4,0.4,0.7,0.8,0.7,1.2c0,0.4-0.2,0.8-0.6,1.2c-1.3,1.2-3,2.1-5.1,2.9C224.4,72.4,222.4,72.8,220.5,72.8z"
		/>
	<path fill="#FFFFFF" d="M254,72.8c-2.1,0-4.3-0.4-6.6-1.2c-2.3-0.8-4.2-2.1-5.8-3.9c-0.3-0.4-0.5-0.8-0.4-1.3
		c0.1-0.5,0.3-0.9,0.8-1.2c0.4-0.3,0.8-0.4,1.3-0.3c0.5,0.1,0.8,0.3,1.1,0.7c1.2,1.4,2.6,2.3,4.3,2.9c1.7,0.5,3.5,0.8,5.5,0.8
		c3.4,0,5.8-0.6,7.2-1.8c1.4-1.2,2.1-2.6,2.1-4.2c0-1.6-0.8-2.9-2.3-3.9c-1.5-1-3.8-1.8-7-2.2c-4-0.6-7-1.7-9-3.3
		c-1.9-1.6-2.9-3.5-2.9-5.6c0-2,0.5-3.7,1.5-5.1c1-1.4,2.4-2.4,4.2-3.2c1.8-0.7,3.8-1.1,6-1.1c2.7,0,5.1,0.5,7,1.5
		c1.9,1,3.4,2.3,4.6,4c0.3,0.4,0.4,0.8,0.3,1.3c-0.1,0.5-0.4,0.8-0.9,1.1c-0.4,0.2-0.8,0.3-1.3,0.2c-0.4-0.1-0.8-0.3-1.2-0.7
		c-1-1.3-2.2-2.3-3.7-2.9c-1.4-0.7-3.1-1-5-1c-2.5,0-4.5,0.5-5.9,1.6c-1.4,1.1-2.1,2.4-2.1,3.9c0,1.1,0.3,2,0.9,2.8
		c0.6,0.8,1.5,1.5,2.9,2c1.3,0.5,3.1,1,5.3,1.3c3,0.4,5.4,1.1,7.2,2.1c1.8,1,3,2.1,3.8,3.4c0.7,1.3,1.1,2.6,1.1,4.1
		c0,1.9-0.6,3.6-1.8,5c-1.2,1.4-2.8,2.5-4.8,3.2C258.4,72.5,256.3,72.8,254,72.8z"/>
</g>
</svg>
